<svg width="55" height="55" viewBox="0 0 55 55" fill="none" xmlns="http://www.w3.org/2000/svg">
<g clip-path="url(#clip0_432_103)">
<path d="M12.3544 0.00860352L23.2392 30.8567V30.8395L24.0986 33.2647C28.887 46.8084 31.4566 54.0684 31.4652 54.077L33.0773 54.175C35.7277 54.2833 39.0122 54.5875 41.5009 54.8814C42.0733 54.9536 42.5666 54.9708 42.6027 54.9536L30.8137 21.5188L25.2553 5.81798C24.6022 3.9436 23.9399 2.07243 23.2684 0.204541L23.1962 -0.00170898H12.3647L12.3544 0.00860352ZM31.8502 0.0275098L31.8227 12.1842L31.8055 24.3495L30.8034 21.5205L29.5144 48.5822C30.7862 52.1727 31.4652 54.0874 31.4755 54.0959C31.4858 54.1045 32.2094 54.1578 33.0773 54.1939C35.7362 54.3108 39.0122 54.6064 41.5095 54.9106C42.0819 54.9725 42.5837 55 42.6112 54.9725C42.6473 54.9553 42.6559 42.5563 42.6559 27.4553L42.6387 0.0275098H31.8502ZM12.3544 0.00860352V27.4811C12.3544 42.5924 12.3716 54.9725 12.3905 54.9897C12.4094 55.0069 13.3392 54.9175 14.4667 54.792C15.6159 54.6482 16.7677 54.5255 17.9214 54.4242C19.1125 54.3074 22.6652 54.0753 23.0777 54.0753C23.1945 54.0753 23.2031 53.4583 23.2203 42.4377L23.2375 30.7914L24.1055 33.2269L24.4097 34.0863L25.7159 7.04345L25.2777 5.79048L23.1911 0.00688477L12.3544 0.00860352Z" fill="#A91010"/>
</g>
<defs>
<clipPath id="clip0_432_103">
<rect width="55" height="55" fill="white"/>
</clipPath>
</defs>
</svg>
