<svg width="48" height="55" viewBox="0 0 48 55" fill="none" xmlns="http://www.w3.org/2000/svg">
<path d="M42.8571 3.4375H5.14286C2.30357 3.4375 0 5.74707 0 8.59375V46.4062C0 49.2529 2.30357 51.5625 5.14286 51.5625H42.8571C45.6964 51.5625 48 49.2529 48 46.4062V8.59375C48 5.74707 45.6964 3.4375 42.8571 3.4375ZM29.7107 44.6553C28.8107 44.8164 28.4786 44.2578 28.4786 43.7959C28.4786 43.2158 28.5 40.251 28.5 37.8555C28.5 36.1797 27.9429 35.1162 27.2893 34.5576C31.2536 34.1172 35.4321 33.5693 35.4321 26.7051C35.4321 24.75 34.7357 23.7725 33.6 22.5156C33.7821 22.0537 34.3929 20.1523 33.4179 17.6816C31.9286 17.2197 28.5214 19.6045 28.5214 19.6045C27.1071 19.207 25.575 19.0029 24.0643 19.0029C22.5536 19.0029 21.0214 19.207 19.6071 19.6045C19.6071 19.6045 16.2 17.2197 14.7107 17.6816C13.7357 20.1416 14.3357 22.043 14.5286 22.5156C13.3929 23.7725 12.8571 24.75 12.8571 26.7051C12.8571 33.5371 16.8536 34.1172 20.8179 34.5576C20.3036 35.0195 19.8429 35.8145 19.6821 36.9531C18.6643 37.415 16.0607 38.21 14.5071 35.46C13.5321 33.7627 11.775 33.623 11.775 33.623C10.0393 33.6016 11.6571 34.7188 11.6571 34.7188C12.8143 35.2559 13.6286 37.3184 13.6286 37.3184C14.6679 40.5088 19.6393 39.4346 19.6393 39.4346C19.6393 40.9277 19.6607 43.3555 19.6607 43.7959C19.6607 44.2578 19.3393 44.8164 18.4286 44.6553C11.3571 42.2813 6.40714 35.5352 6.40714 27.6504C6.40714 17.7891 13.9286 10.3018 23.7643 10.3018C33.6 10.3018 41.5714 17.7891 41.5714 27.6504C41.5821 35.5352 36.7821 42.292 29.7107 44.6553ZM19.2 38.0918C18.9964 38.1348 18.8036 38.0488 18.7821 37.9092C18.7607 37.748 18.9 37.6084 19.1036 37.5654C19.3071 37.5439 19.5 37.6299 19.5214 37.7695C19.5536 37.9092 19.4143 38.0488 19.2 38.0918ZM18.1821 37.9951C18.1821 38.1348 18.0214 38.2529 17.8071 38.2529C17.5714 38.2744 17.4107 38.1563 17.4107 37.9951C17.4107 37.8555 17.5714 37.7373 17.7857 37.7373C17.9893 37.7158 18.1821 37.834 18.1821 37.9951ZM16.7143 37.877C16.6714 38.0166 16.4571 38.0811 16.275 38.0166C16.0714 37.9736 15.9321 37.8125 15.975 37.6729C16.0179 37.5332 16.2321 37.4688 16.4143 37.5117C16.6286 37.5762 16.7679 37.7373 16.7143 37.877ZM15.3964 37.2969C15.3 37.415 15.0964 37.3936 14.9357 37.2324C14.775 37.0928 14.7321 36.8887 14.8393 36.792C14.9357 36.6738 15.1393 36.6953 15.3 36.8564C15.4393 36.9961 15.4929 37.2109 15.3964 37.2969ZM14.4214 36.3193C14.325 36.3838 14.1429 36.3193 14.025 36.1582C13.9071 35.9971 13.9071 35.8145 14.025 35.7393C14.1429 35.6426 14.325 35.7178 14.4214 35.8789C14.5393 36.04 14.5393 36.2334 14.4214 36.3193V36.3193ZM13.725 35.2773C13.6286 35.374 13.4679 35.3203 13.35 35.2129C13.2321 35.0732 13.2107 34.9121 13.3071 34.8369C13.4036 34.7402 13.5643 34.7939 13.6821 34.9014C13.8 35.041 13.8214 35.2021 13.725 35.2773ZM13.0071 34.4824C12.9643 34.5791 12.825 34.6006 12.7071 34.5254C12.5679 34.4609 12.5036 34.3428 12.5464 34.2461C12.5893 34.1816 12.7071 34.1494 12.8464 34.2031C12.9857 34.2783 13.05 34.3965 13.0071 34.4824Z" fill="#A91010"/>
</svg>
